<?xml version="1.0" encoding="utf-8"?>
<!-- Generator: Adobe Illustrator 19.0.0, SVG Export Plug-In . SVG Version: 6.00 Build 0)  -->
<svg version="1.1" id="layer" xmlns="http://www.w3.org/2000/svg" xmlns:xlink="http://www.w3.org/1999/xlink" x="0px" y="0px"
	 viewBox="-153 -46 652 652" style="enable-background:new -153 -46 652 652;" xml:space="preserve">
<style type="text/css">
	.st0{fill:#006EB6;}
</style>
<g>
	<path class="st0" d="M-73.3,217.9c-12.4,0-23.9,3.9-33.3,10.4c0,0,29.2,64.1,29.8,65.5c0.7,1.5,1.7,1.9,1.7,1.9h-5.2
		c-2.4,0-3.2-0.3-4.3-2.7l-27.5-60.3c-1.9,1.7-3.6,3.4-5.2,5.3c8.4,18.6,24.7,54.4,25.4,55.8c0.7,1.5,1.7,1.9,1.7,1.9h-5.2
		c-2.4,0-3.2-0.3-4.3-2.7l-22.2-48.8c-1.6,2.4-3,4.9-4.2,7.6c8.4,18.5,18.6,40.9,19.1,42c0.7,1.5,1.7,1.9,1.7,1.9h-5.2
		c-2.4,0-3.2-0.3-4.3-2.7l-14.6-32c-1.1,4-1.8,8.2-2,12.6c5,10.9,8.9,19.6,9.2,20.3c0.7,1.5,1.7,1.9,1.7,1.9h-5.2
		c-1.2,0-2-0.1-2.6-0.4c7.9,22.9,29.6,39.4,55.3,39.4c32.3,0,58.4-26.2,58.4-58.4C-14.9,244-41.1,217.9-73.3,217.9 M-73.3,326.3
		c-17.6,0-33.1-9.1-42-22.9h61.8h19.8l-10.9-9.3c0,0-5,1.7-10.2,1.7h-10.3c-2.4,0-3.2-0.3-4.3-2.7l-27.6-60.6c7.1-3.9,15.2-6,23.8-6
		c27.6,0,50,22.4,50,50C-23.4,303.9-45.7,326.3-73.3,326.3"/>
	<polygon class="st0" points="96.2,303.3 87.1,303.3 52.2,258.1 52.1,303.3 42,303.3 42,240.8 51.2,240.8 86.1,286.1 86.1,240.8 
		96.2,240.8 	"/>
	<path class="st0" d="M128.1,259.4c3.3,0,6.4,0.6,9.2,1.7c2.8,1.1,5.2,2.7,7.3,4.7c2.1,2,3.7,4.4,4.8,7.1c1.2,2.7,1.7,5.7,1.7,8.9
		c0,3.2-0.6,6.2-1.7,8.9c-1.2,2.7-2.8,5.1-4.8,7.1c-2,2-4.5,3.6-7.3,4.7c-2.8,1.1-5.9,1.7-9.2,1.7c-3.3,0-6.4-0.6-9.2-1.7
		c-2.8-1.1-5.2-2.7-7.3-4.7c-2-2-3.6-4.4-4.8-7.1c-1.2-2.7-1.7-5.7-1.7-8.9c0-3.2,0.6-6.2,1.7-8.9c1.2-2.7,2.8-5.1,4.8-7.1
		c2-2,4.5-3.6,7.3-4.7C121.7,260,124.7,259.4,128.1,259.4 M128.1,268.2c-1.9,0-3.7,0.3-5.3,1c-1.6,0.7-3.1,1.6-4.2,2.8
		c-1.2,1.2-2.1,2.6-2.8,4.3c-0.7,1.7-1,3.5-1,5.6c0,2,0.3,3.9,1,5.6c0.7,1.7,1.6,3.1,2.8,4.3c1.2,1.2,2.6,2.1,4.2,2.8
		c1.6,0.7,3.4,1,5.3,1c1.9,0,3.7-0.3,5.3-1c1.6-0.7,3.1-1.6,4.3-2.8c1.2-1.2,2.1-2.7,2.8-4.3c0.7-1.7,1-3.5,1-5.6c0-2-0.3-3.9-1-5.6
		c-0.7-1.7-1.6-3.1-2.8-4.3c-1.2-1.2-2.6-2.1-4.3-2.8C131.7,268.6,130,268.2,128.1,268.2"/>
	<path class="st0" d="M181.6,259.4c1.4,0,2.7,0.1,3.9,0.3c1.1,0.2,2.3,0.5,3.3,0.9l-2.2,9.2c-1-0.5-2.1-0.9-3.4-1.2
		c-1.3-0.3-2.5-0.4-3.7-0.4c-1.5,0-2.9,0.3-4.1,0.8c-1.3,0.5-2.3,1.3-3.2,2.2c-0.9,1-1.6,2.2-2.1,3.6c-0.5,1.4-0.8,3-0.8,4.9v23.5
		H160v-42.8h9.2v4.8c1.4-2.1,3.2-3.6,5.3-4.5C176.7,259.9,179,259.4,181.6,259.4"/>
	<path class="st0" d="M211.3,259.4c3.1,0,5.7,0.6,7.9,1.7c2.2,1.1,4,2.7,5.5,4.6V239h9.3v64.3h-9.3v-5.1c-1.5,1.9-3.3,3.4-5.5,4.6
		c-2.2,1.1-4.8,1.7-7.9,1.7c-3,0-5.8-0.6-8.4-1.7c-2.6-1.1-4.8-2.7-6.8-4.7c-1.9-2-3.4-4.4-4.6-7.1c-1.1-2.8-1.6-5.8-1.6-9
		c0-3.3,0.5-6.3,1.6-9.1c1.1-2.8,2.6-5.1,4.6-7.1c1.9-2,4.2-3.6,6.8-4.7C205.5,260,208.3,259.4,211.3,259.4 M212.4,268.2
		c-2,0-3.8,0.4-5.4,1.1c-1.6,0.7-2.9,1.7-4,2.9c-1.1,1.2-1.9,2.7-2.5,4.4c-0.6,1.7-0.9,3.4-0.9,5.3c0,1.9,0.3,3.6,0.9,5.3
		c0.6,1.7,1.4,3.1,2.5,4.4c1.1,1.2,2.5,2.2,4,2.9c1.6,0.7,3.4,1.1,5.4,1.1c1.9,0,3.7-0.4,5.3-1.1c1.6-0.7,2.9-1.7,4.1-2.9
		c1.1-1.2,2-2.7,2.6-4.3c0.6-1.7,0.9-3.5,0.9-5.4c0-2-0.3-3.8-0.9-5.5c-0.6-1.7-1.5-3.1-2.6-4.3c-1.1-1.2-2.5-2.2-4.1-2.9
		C216.1,268.6,214.3,268.2,212.4,268.2"/>
	<polygon class="st0" points="288.7,276.6 256.2,276.6 256.2,303.3 246.1,303.3 246.1,240.8 290.7,240.8 290.7,250.4 256.2,250.4 
		256.2,267.1 288.7,267.1 	"/>
	<path class="st0" d="M319,259.4c3.3,0,6.4,0.6,9.2,1.7c2.8,1.1,5.2,2.7,7.3,4.7c2.1,2,3.7,4.4,4.8,7.1c1.2,2.7,1.7,5.7,1.7,8.9
		c0,3.2-0.6,6.2-1.7,8.9c-1.2,2.7-2.8,5.1-4.8,7.1c-2,2-4.5,3.6-7.3,4.7c-2.8,1.1-5.9,1.7-9.2,1.7c-3.3,0-6.4-0.6-9.2-1.7
		c-2.8-1.1-5.2-2.7-7.3-4.7c-2-2-3.6-4.4-4.8-7.1c-1.2-2.7-1.7-5.7-1.7-8.9c0-3.2,0.6-6.2,1.7-8.9c1.2-2.7,2.8-5.1,4.8-7.1
		c2-2,4.5-3.6,7.3-4.7C312.7,260,315.7,259.4,319,259.4 M319,268.2c-1.9,0-3.7,0.3-5.3,1c-1.6,0.7-3.1,1.6-4.2,2.8
		c-1.2,1.2-2.1,2.6-2.8,4.3c-0.7,1.7-1,3.5-1,5.6c0,2,0.3,3.9,1,5.6c0.7,1.7,1.6,3.1,2.8,4.3c1.2,1.2,2.6,2.1,4.2,2.8
		c1.6,0.7,3.4,1,5.3,1c1.9,0,3.7-0.3,5.3-1c1.6-0.7,3.1-1.6,4.3-2.8c1.2-1.2,2.1-2.7,2.8-4.3c0.7-1.7,1-3.5,1-5.6c0-2-0.3-3.9-1-5.6
		c-0.7-1.7-1.6-3.1-2.8-4.3c-1.2-1.2-2.6-2.1-4.3-2.8C322.7,268.6,320.9,268.2,319,268.2"/>
	<path class="st0" d="M372.6,259.4c1.4,0,2.7,0.1,3.9,0.3c1.1,0.2,2.3,0.5,3.3,0.9l-2.2,9.2c-1-0.5-2.1-0.9-3.4-1.2
		c-1.3-0.3-2.5-0.4-3.7-0.4c-1.5,0-2.9,0.3-4.1,0.8c-1.3,0.5-2.3,1.3-3.2,2.2c-0.9,1-1.6,2.2-2.1,3.6c-0.5,1.4-0.8,3-0.8,4.9v23.5
		H351v-42.8h9.2v4.8c1.4-2.1,3.2-3.6,5.3-4.5C367.6,259.9,370,259.4,372.6,259.4"/>
	<path class="st0" d="M414.9,271.3c-0.7-0.4-1.5-0.8-2.4-1.2c-1-0.4-2-0.8-3.2-1.2c-1.2-0.4-2.4-0.7-3.7-0.9c-1.3-0.2-2.6-0.4-4-0.4
		c-2.6,0-4.5,0.5-6,1.4c-1.4,0.9-2.1,2.2-2.1,3.7c0,0.7,0.2,1.4,0.6,1.9c0.4,0.5,0.9,0.9,1.5,1.3c0.6,0.3,1.4,0.6,2.2,0.8
		c0.9,0.2,1.8,0.4,2.8,0.5l4.4,0.7c4.7,0.7,8.3,2,10.9,4.1c2.6,2,3.9,4.9,3.9,8.6c0,2-0.4,3.9-1.3,5.6c-0.9,1.7-2.1,3.2-3.8,4.4
		c-1.6,1.2-3.7,2.2-6.1,2.9c-2.4,0.7-5.2,1-8.2,1c-1.1,0-2.4-0.1-3.8-0.2c-1.5-0.1-3-0.4-4.6-0.8c-1.6-0.4-3.3-1-5-1.7
		c-1.7-0.7-3.3-1.7-4.9-2.8l4.3-7c0.8,0.6,1.6,1.2,2.5,1.7c0.9,0.5,1.9,1,3.1,1.4c1.1,0.4,2.4,0.7,3.8,1c1.4,0.2,3,0.4,4.7,0.4
		c3.2,0,5.6-0.5,7.3-1.4c1.6-0.9,2.5-2.2,2.5-3.8c0-1.2-0.6-2.2-1.8-3c-1.2-0.8-3.1-1.4-5.6-1.7l-4.5-0.6c-4.8-0.7-8.4-2-10.8-4.2
		c-2.5-2.1-3.7-4.9-3.7-8.4c0-2.1,0.4-4,1.2-5.7c0.8-1.7,2-3.1,3.5-4.3c1.5-1.2,3.4-2.1,5.6-2.7c2.2-0.6,4.6-1,7.4-1
		c3.4,0,6.5,0.4,9.5,1.2c3,0.8,5.6,1.9,7.8,3.3L414.9,271.3z"/>
	<polygon class="st0" points="437.6,276.8 442.3,276.8 456.4,260.6 468.1,260.6 450.2,280.7 468.3,303.3 456.5,303.3 442.2,285.3 
		437.6,285.3 437.6,303.3 428.2,303.3 428.2,239 437.6,239 	"/>
</g>
</svg>
